<?xml version="1.0" encoding="UTF-8"?><svg id="Layer_2" xmlns="http://www.w3.org/2000/svg" viewBox="0 0 1334 1334"><g id="Layer_1-2"><g><polygon points="341.5 0 1334 992.5 1334 971.29 362.71 0 341.5 0"/><polygon points="542.71 0 1334 791.29 1334 770.08 563.92 0 542.71 0"/><polygon points="743.91 0 1334 590.09 1334 568.88 765.12 0 743.91 0"/><polygon points="945.11 0 1334 388.89 1334 367.67 966.33 0 945.11 0"/><polygon points="1045.72 0 1334 288.28 1334 267.07 1066.93 0 1045.72 0"/><polygon points="1146.32 0 1334 187.68 1334 166.47 1167.53 0 1146.32 0"/><polygon points="1246.92 0 1334 87.08 1334 65.87 1268.13 0 1246.92 0"/><polygon points="0 463.32 870.68 1334 891.9 1334 0 442.1 0 463.32"/><polygon points="0 262.11 1071.89 1334 1093.1 1334 0 240.9 0 262.11"/><polygon points="0 60.91 1273.09 1334 1294.31 1334 0 39.69 0 60.91"/><polygon points="140.3 0 1334 1193.7 1334 1172.49 161.51 0 140.3 0"/><polygon points="0 1268.13 65.87 1334 87.08 1334 0 1246.92 0 1268.13"/><polygon points="0 1066.93 267.07 1334 288.28 1334 0 1045.72 0 1066.93"/><polygon points="0 865.72 468.28 1334 489.49 1334 0 844.51 0 865.72"/><polygon points="0 664.52 669.48 1334 690.69 1334 0 643.31 0 664.52"/><polygon points="240.9 0 1334 1093.1 1334 1071.89 262.11 0 240.9 0"/><polygon points="442.1 0 1334 891.9 1334 870.68 463.32 0 442.1 0"/><polygon points="643.31 0 1334 690.69 1334 669.48 664.52 0 643.31 0"/><polygon points="844.51 0 1334 489.49 1334 468.28 865.72 0 844.51 0"/><polygon points="0 563.92 770.08 1334 791.29 1334 0 542.71 0 563.92"/><polygon points="0 362.71 971.29 1334 992.5 1334 0 341.5 0 362.71"/><polygon points="0 161.51 1172.49 1334 1193.7 1334 0 140.3 0 161.51"/><polygon points="39.69 0 1334 1294.3 1334 1273.09 60.91 0 39.69 0"/><polygon points="0 1167.53 166.47 1334 187.68 1334 0 1146.32 0 1167.53"/><polygon points="0 966.33 367.67 1334 388.89 1334 0 945.11 0 966.33"/><polygon points="0 765.12 568.88 1334 590.09 1334 0 743.91 0 765.12"/></g></g></svg>